<svg width="92" height="61" viewBox="0 0 92 61" fill="none" xmlns="http://www.w3.org/2000/svg">
<path fill-rule="evenodd" clip-rule="evenodd" d="M46 0C38.9308 0 33.2 5.73075 33.2 12.8V17.1155L33.1793 17.0947C28.1806 12.0796 20.0761 12.0796 15.0774 17.0947C10.0787 22.1099 10.0787 30.2411 15.0774 35.2562L15.1367 35.3158H12.8421C5.74961 35.3158 0 41.0654 0 48.1579C0 55.2504 5.7496 61 12.8421 61H45.9929L46 61H46.0071H79.1579C86.2504 61 92 55.2504 92 48.1579C92 41.0654 86.2504 35.3158 79.1579 35.3158H76.8633L76.9226 35.2562C81.9213 30.2411 81.9213 22.1099 76.9226 17.0947C71.9239 12.0796 63.8194 12.0796 58.8207 17.0947L58.8 17.1155V12.8C58.8 5.73075 53.0692 0 46 0ZM69.1784 39.2109C60.4946 36.3927 52.5677 31.632 46 25.2904C39.4323 31.632 31.5054 36.3927 22.8217 39.2109L18.8023 40.5154L22.8217 41.8198C31.5054 44.638 39.4323 49.3988 46 55.7403C52.5677 49.3988 60.4946 44.638 69.1784 41.8198L73.1977 40.5154L69.1784 39.2109Z" fill="#7B6FD7"/>
<ellipse cx="46" cy="40.5154" rx="5.50146" ry="5.51956" fill="#7B6FD7"/>
</svg>
